<svg width="22" height="22" viewBox="0 0 22 22" fill="none" xmlns="http://www.w3.org/2000/svg">
<path d="M19.7364 6.67391L8.73639 17.6739C8.67254 17.7378 8.59672 17.7885 8.51326 17.8231C8.4298 17.8577 8.34033 17.8755 8.24999 17.8755C8.15964 17.8755 8.07018 17.8577 7.98671 17.8231C7.90325 17.7885 7.82743 17.7378 7.76358 17.6739L2.95108 12.8614C2.82208 12.7324 2.7496 12.5574 2.7496 12.375C2.7496 12.1926 2.82208 12.0176 2.95108 11.8886C3.08008 11.7596 3.25505 11.6871 3.43749 11.6871C3.61992 11.6871 3.79489 11.7596 3.92389 11.8886L8.24999 16.2155L18.7636 5.70109C18.8926 5.57209 19.0676 5.49962 19.25 5.49962C19.4324 5.49962 19.6074 5.57209 19.7364 5.70109C19.8654 5.8301 19.9379 6.00506 19.9379 6.1875C19.9379 6.36994 19.8654 6.5449 19.7364 6.67391Z" fill="#9E78CF"/>
</svg>
